<svg width="952" height="952" viewBox="0 0 952 952" fill="none" xmlns="http://www.w3.org/2000/svg">
<path fill-rule="evenodd" clip-rule="evenodd" d="M158.132 374.626C171.886 373.25 171.797 373.238 172.986 373.14C221.468 369.144 283.758 399.374 313.261 451.677C395.971 598.302 240.357 763.713 88.4989 680.286C-14.5352 623.682 0.781155 505.296 0.832033 479.428C1.26238 253.685 -1.52103 252.144 6.29297 242.742C9.51736 238.861 11.9616 235.922 69.142 237.36C91.1467 237.913 86.8306 249.961 86.538 347.998C86.3769 402.213 85.2152 408.195 90.0295 404.695C117.841 384.471 125.491 380.67 158.132 374.626ZM164.485 444.575C76.2606 451.494 33.7183 575.622 121.478 628.878C224.273 691.261 340.754 545.682 232.922 463.824C230.913 462.299 221.027 454.793 204.986 449.186C185.127 442.245 165.674 444.554 164.485 444.575Z" fill="white"/>
<path fill-rule="evenodd" clip-rule="evenodd" d="M654.087 547.204C681.862 492.381 654.73 480.31 649.665 478.059C632.401 470.379 635.074 466.52 635.099 447.632C635.316 293.196 631.854 288.566 644.098 283.224C644.27 283.148 701.724 275.113 713.029 289.071C725.276 304.19 714.108 400.368 719.949 402.728C723.451 404.14 730.792 386.528 779.198 375.133C848.706 358.769 964.937 417.841 950.824 553.606C937.197 684.712 782.236 740.693 684.152 674.066C667.029 662.434 688.178 655.958 681.034 636.597C671.634 611.115 634.239 586.781 641.205 572.565C642.207 570.521 642.438 570.75 654.087 547.204ZM781.335 446.629C655.692 470.442 688.034 651.913 804.694 638.032C881.228 628.925 927.55 525.511 848.808 463.095C822.947 442.593 786.866 446.093 781.335 446.629Z" fill="white"/>
<path fill-rule="evenodd" clip-rule="evenodd" d="M638.398 513.292C628.326 556.733 591.484 577.197 599.266 585.276C634.974 622.357 664.411 640.474 634.728 654.605C582.182 679.62 565.157 616.674 552.849 626.203C543.665 633.317 485.383 678.45 408.718 643.953C372.567 627.687 313.78 545.638 415.345 482.574C430.937 472.893 398.335 469.893 387.633 419.98C376.313 367.171 443.544 307.281 518.366 337.831C577.287 361.888 594.531 444.876 506.342 488.932C498.899 492.65 504.947 495.385 513.378 503.674C538.058 527.936 552.887 546.776 554.56 546.676C563.444 546.142 579.151 498.751 595.033 494.953C601.471 493.411 615.545 493.146 626.448 497.039C639.653 501.751 638.044 509.809 638.398 513.292ZM478.281 604.639C491.855 602.987 502.823 599.182 517.103 588.388C524.402 582.872 519.083 580.489 504.485 565.584C456.969 517.065 455.918 516.758 452.927 517.805C438.431 522.878 424.789 542.339 422.93 544.993C409.199 564.583 423.102 587.985 434.263 595.282C453.673 607.974 475.213 604.728 478.281 604.639ZM471.832 376.846C440.377 383.032 427.405 412.679 454.712 443.606C465.091 455.361 466.115 461.888 479.811 453.105C505.611 436.564 524.972 420.192 510.527 392.262C501.873 375.532 475.16 376.7 471.832 376.846Z" fill="white"/>
<path fill-rule="evenodd" clip-rule="evenodd" d="M321.308 399.781C285.059 389.589 324.649 357.697 334.519 331.145C336.039 327.058 332.454 326.494 317.176 324.565C309.548 323.602 309.769 323.589 302.33 322.5C276.658 318.737 231.493 316.426 227.487 305.876C225.846 301.555 225.363 299.562 264.761 261.714C304.618 223.428 387.58 235.622 427.225 226.5C433.32 225.096 435.933 224.496 488.978 178.528C606.591 76.6049 757.55 53.6229 796.427 67.8093C821.437 76.9377 797.054 199.269 778.802 250.274C770.133 274.497 709.135 247.764 694.783 239.393C624.943 198.646 610.19 149.663 607.422 146.742C602.478 141.525 524.508 186.997 480.008 228.857C345.663 355.24 348.487 397.375 321.308 399.781ZM646.655 144.419C650.011 164.111 665.425 136.141 718.166 106.913C729.344 100.719 762.707 88.6714 747.491 89.4748C747.416 89.4791 701.126 103.858 678.068 113.744C643.861 128.407 646.882 133.758 646.655 144.419Z" fill="white"/>
<path fill-rule="evenodd" clip-rule="evenodd" d="M325.473 862.236C312.031 862.622 312.731 854.92 313.43 841.974C313.939 832.591 327.856 775.137 325.246 772.364C324.661 771.745 277.184 767.109 249.765 735.558C241.001 725.474 240.187 721.749 247.723 717.851C293.683 694.076 296.276 684.969 310.901 695.522C395.002 756.217 425.183 718.684 539.345 658.858C558.068 649.045 553.985 668.395 543.068 677.742C511.364 704.877 453.628 729.703 448.962 736.186C444.4 742.522 438.812 759.189 400.976 802.87C393.224 811.82 349.592 853.139 325.473 862.236ZM208.738 759.467C207.861 758.776 208.509 757.741 206.868 757.991C151.757 766.378 134.228 834.429 125.739 825.517C124.66 824.385 124.59 771.47 188.283 738.876C213.671 725.883 216.211 723.076 220.792 730.191C259.162 789.775 303.072 783.682 298.19 799.567C282.532 850.511 205.507 874.639 217.207 862.974C234.321 845.91 238.105 828.215 236.602 828.209C227.287 828.175 234.951 850.918 156.239 876.492C141.047 881.427 66.1571 897.763 89.6924 881.351C166.541 827.758 170.949 801.195 208.007 762.67C208.715 762.078 208.335 761.941 209.022 761.368C210.841 759.855 208.804 759.908 208.738 759.467ZM62.443 792.283C50.2557 794.352 44.534 785.904 57.8046 775.292C85.4356 753.194 84.753 752.664 112.352 730.617C136.322 711.47 147.827 726.375 138.476 735.348C132.72 740.871 112.587 756.397 110.289 758.169C79.203 782.141 77.4902 784.295 62.443 792.283ZM90.2478 820.187C115.757 823.38 84.7933 851.346 64.3616 864.453C39.4165 880.456 27.7188 890.782 20.5175 886.191C7.81072 878.084 24.0302 870.332 51.5106 849.487C71.8872 834.028 79.1013 824.251 90.2478 820.187Z" fill="white"/>
</svg>
