<svg width="127" height="20" viewBox="0 0 127 20" fill="none" xmlns="http://www.w3.org/2000/svg">
<path d="M124.265 19.6315C122.569 19.6315 121.314 19.237 120.502 18.4482C119.708 17.6414 119.311 16.4402 119.311 14.8446V2.52789L122.749 1.26394V14.9253C122.749 15.5886 122.93 16.0817 123.29 16.4044C123.651 16.7271 124.22 16.8884 124.996 16.8884C125.303 16.8884 125.573 16.8705 125.808 16.8347C126.061 16.7809 126.295 16.7181 126.512 16.6464V19.2819C126.295 19.3894 125.989 19.4701 125.591 19.5239C125.194 19.5956 124.752 19.6315 124.265 19.6315ZM116.658 8.30976V5.64741H126.512V8.30976H116.658Z" fill="black"/>
<path d="M109.091 19.6315C107.629 19.6315 106.348 19.3267 105.247 18.7171C104.164 18.1076 103.316 17.2649 102.702 16.1892C102.107 15.1135 101.809 13.8765 101.809 12.4781C101.809 11.0797 102.107 9.85159 102.702 8.79382C103.316 7.71812 104.164 6.88446 105.247 6.29282C106.33 5.68326 107.593 5.37848 109.037 5.37848C110.408 5.37848 111.599 5.66534 112.61 6.23904C113.621 6.79482 114.406 7.58366 114.965 8.60557C115.525 9.62749 115.804 10.8197 115.804 12.1823C115.804 12.4333 115.795 12.6663 115.777 12.8815C115.759 13.0966 115.732 13.3117 115.696 13.5269H103.921V11.1604H113.07L112.366 11.8058C112.366 10.5149 112.069 9.54681 111.473 8.90139C110.878 8.25597 110.047 7.93326 108.983 7.93326C107.828 7.93326 106.907 8.32768 106.221 9.11653C105.554 9.90537 105.22 11.0438 105.22 12.5319C105.22 14.002 105.554 15.1315 106.221 15.9203C106.907 16.6912 107.873 17.0767 109.118 17.0767C109.84 17.0767 110.471 16.9422 111.013 16.6733C111.554 16.4044 111.951 15.992 112.204 15.4362H115.425C114.974 16.7271 114.207 17.749 113.124 18.502C112.06 19.255 110.715 19.6315 109.091 19.6315Z" fill="black"/>
<path d="M95.8599 19.3625V0H99.2708V19.3625H95.8599Z" fill="black"/>
<path d="M88.828 19.3625V0H92.2388V19.3625H88.828Z" fill="black"/>
<path d="M82.3415 19.3625C82.2513 19.004 82.1791 18.6096 82.125 18.1793C82.0889 17.749 82.0708 17.2291 82.0708 16.6195H81.9625V10.1115C81.9625 9.39442 81.755 8.85657 81.3399 8.498C80.9429 8.12151 80.3293 7.93326 79.4992 7.93326C78.6871 7.93326 78.0374 8.08565 77.5501 8.39043C77.0809 8.67729 76.7921 9.0986 76.6839 9.65438H73.4084C73.5527 8.38147 74.1663 7.35059 75.2491 6.56175C76.3319 5.77291 77.7847 5.37848 79.6074 5.37848C81.5024 5.37848 82.9371 5.80876 83.9116 6.66932C84.8861 7.51195 85.3734 8.75796 85.3734 10.4074V16.6195C85.3734 17.0498 85.4005 17.489 85.4546 17.9372C85.5268 18.3855 85.6261 18.8605 85.7524 19.3625H82.3415ZM77.5501 19.6315C76.1605 19.6315 75.0506 19.2908 74.2205 18.6096C73.4084 17.9103 73.0023 16.9781 73.0023 15.8127C73.0023 14.5578 73.4625 13.5627 74.3829 12.8277C75.3033 12.0926 76.6027 11.5996 78.281 11.3486L82.5852 10.7032V12.8546L78.8495 13.4193C78.0374 13.5448 77.4238 13.7689 77.0087 14.0916C76.6117 14.4143 76.4132 14.8625 76.4132 15.4362C76.4132 15.9562 76.6026 16.3596 76.9816 16.6464C77.3606 16.9153 77.884 17.0498 78.5517 17.0498C79.5262 17.0498 80.3383 16.8078 80.988 16.3237C81.6377 15.8396 81.9625 15.248 81.9625 14.5488L82.3415 16.6195C81.9806 17.6056 81.3851 18.3586 80.5549 18.8785C79.7428 19.3805 78.7412 19.6315 77.5501 19.6315Z" fill="black"/>
<path d="M51.0327 19.3625L45.4292 0H49.0025L53.7668 17.7759H52.7382L57.1506 0H61.2111L65.5694 17.7759H64.5678L69.3322 0H72.743L67.1395 19.3625H63.1331L58.6936 1.99004H59.5328L55.0391 19.3625H51.0327Z" fill="black"/>
<path d="M114.435 3.25639C114.73 2.39849 115.923 2.37251 116.273 3.17844L116.303 3.25688L116.701 4.41381C116.792 4.67914 116.94 4.92194 117.133 5.12583C117.327 5.32972 117.563 5.48996 117.824 5.59575L117.931 5.63546L119.096 6.03058C119.959 6.32373 119.985 7.5091 119.175 7.85667L119.096 7.88609L117.931 8.2817C117.664 8.3723 117.419 8.51878 117.214 8.71126C117.009 8.90374 116.847 9.13774 116.741 9.39745L116.701 9.50334L116.303 10.6608C116.008 11.5187 114.815 11.5446 114.465 10.7392L114.435 10.6608L114.037 9.50383C113.946 9.23841 113.798 8.99552 113.605 8.79154C113.411 8.58756 113.175 8.42724 112.914 8.32141L112.807 8.2817L111.643 7.88658C110.779 7.59342 110.753 6.40805 111.564 6.06097L111.643 6.03058L112.807 5.63546C113.074 5.54479 113.319 5.39828 113.524 5.20581C113.729 5.01333 113.891 4.77937 113.997 4.5197L114.037 4.41381L114.435 3.25639Z" fill="url(#paint0_linear_36_99)"/>
<path d="M114.435 3.25639C114.73 2.39849 115.923 2.37251 116.273 3.17844L116.303 3.25688L116.701 4.41381C116.792 4.67914 116.94 4.92194 117.133 5.12583C117.327 5.32972 117.563 5.48996 117.824 5.59575L117.931 5.63546L119.096 6.03058C119.959 6.32373 119.985 7.5091 119.175 7.85667L119.096 7.88609L117.931 8.2817L117.735 8.36059C117.544 8.44903 117.368 8.56693 117.214 8.71126L117.068 8.86285C116.931 9.022 116.821 9.20273 116.741 9.39745L116.701 9.50334L116.303 10.6608C116.026 11.4652 114.96 11.5382 114.54 10.8801L114.465 10.7392L114.435 10.6608L114.037 9.50383C113.969 9.3051 113.869 9.11806 113.742 8.95148L113.605 8.79154C113.411 8.58756 113.175 8.42724 112.914 8.32141L112.807 8.2817L111.643 7.88658C110.832 7.61165 110.759 6.55186 111.422 6.13487L111.564 6.06097L111.643 6.03058L112.807 5.63546C113.008 5.56747 113.195 5.46872 113.363 5.34208L113.524 5.20581C113.729 5.01333 113.891 4.77937 113.997 4.5197L114.037 4.41381L114.435 3.25639ZM115.647 3.43644C115.533 3.19389 115.165 3.21172 115.075 3.47419L114.677 4.63137L114.67 4.64942L114.63 4.75611L114.624 4.77417C114.481 5.1226 114.263 5.43668 113.988 5.69498C113.712 5.95312 113.384 6.14942 113.026 6.27111L111.871 6.66176L111.828 6.67981C111.579 6.78925 111.594 7.16035 111.861 7.25101L113.026 7.64494L113.044 7.65151L113.152 7.69254L113.17 7.69911C113.521 7.8412 113.837 8.05558 114.097 8.3294C114.357 8.60323 114.554 8.93003 114.677 9.28633L115.07 10.432L115.087 10.473L115.139 10.5551C115.285 10.7155 115.581 10.6756 115.661 10.4435L116.06 9.28633L116.066 9.26663L116.108 9.16158L116.114 9.14353C116.257 8.7951 116.473 8.48102 116.749 8.22271C117.024 7.96424 117.353 7.76661 117.712 7.64494L118.862 7.25429L118.913 7.23296C119.126 7.13433 119.141 6.84459 118.964 6.71264L118.877 6.66668L117.712 6.27111L117.694 6.26618L117.586 6.22515L117.568 6.21858C117.217 6.07653 116.901 5.86045 116.641 5.58665C116.381 5.3129 116.182 4.98757 116.06 4.63137L115.668 3.49225L115.647 3.43644Z" fill="black"/>
<path d="M33.2712 18.9442C31.9752 18.9442 30.8312 18.6722 29.8392 18.1282C28.8632 17.5842 28.1032 16.8322 27.5592 15.8722C27.0152 14.8962 26.7432 13.7842 26.7432 12.5362C26.7432 11.2882 27.0152 10.1922 27.5592 9.24824C28.1032 8.30424 28.8632 7.56824 29.8392 7.04024C30.8312 6.49624 31.9752 6.22424 33.2712 6.22424C34.5832 6.22424 35.7272 6.49624 36.7032 7.04024C37.6792 7.56824 38.4392 8.30424 38.9832 9.24824C39.5272 10.1922 39.7992 11.2882 39.7992 12.5362C39.7992 13.7842 39.5192 14.8962 38.9592 15.8722C38.4152 16.8322 37.6552 17.5842 36.6792 18.1282C35.7032 18.6722 34.5672 18.9442 33.2712 18.9442ZM33.2712 16.5202C33.9112 16.5202 34.4872 16.3602 34.9992 16.0402C35.5112 15.7042 35.9112 15.2402 36.1992 14.6482C36.4872 14.0402 36.6312 13.3282 36.6312 12.5122C36.6312 11.3122 36.3112 10.3682 35.6712 9.68024C35.0472 8.99224 34.2472 8.64824 33.2712 8.64824C32.2952 8.64824 31.4872 8.99224 30.8472 9.68024C30.2072 10.3682 29.8872 11.3122 29.8872 12.5122C29.8872 13.3282 30.0312 14.0402 30.3192 14.6482C30.6232 15.2402 31.0232 15.7042 31.5192 16.0402C32.0312 16.3602 32.6152 16.5202 33.2712 16.5202Z" fill="black"/>
<path d="M17.0288 18.7042V6.46424H19.9808V9.41624H20.0528V18.7042H17.0288ZM20.0528 12.3202L19.7408 9.41624C20.0288 8.37624 20.5168 7.58424 21.2048 7.04024C21.8928 6.49624 22.7168 6.22424 23.6768 6.22424C24.0128 6.22424 24.2528 6.25624 24.3968 6.32024V9.17624C24.3168 9.14424 24.2048 9.12824 24.0608 9.12824C23.9168 9.11224 23.7408 9.10424 23.5328 9.10424C22.3648 9.10424 21.4928 9.36024 20.9168 9.87224C20.3408 10.3842 20.0528 11.2002 20.0528 12.3202Z" fill="black"/>
<path d="M2.448 18.7042V16.4002H7.272C8.152 16.4002 8.832 16.1602 9.312 15.6802C9.792 15.1842 10.032 14.5122 10.032 13.6642C10.032 12.7842 9.776 12.0882 9.264 11.5762C8.752 11.0642 8.04 10.8082 7.128 10.8082H2.448V8.50419H6.912C7.776 8.50419 8.44 8.29619 8.904 7.88019C9.368 7.46419 9.6 6.86419 9.6 6.08019C9.6 5.31219 9.376 4.72819 8.928 4.32819C8.496 3.92819 7.856 3.7282 7.008 3.7282H2.448V1.42419H7.584C9.136 1.42419 10.376 1.81619 11.304 2.60019C12.248 3.36819 12.72 4.41619 12.72 5.74419C12.72 6.57619 12.52 7.30419 12.12 7.92819C11.736 8.53619 11.216 9.00819 10.56 9.34419C9.904 9.68019 9.16 9.84819 8.328 9.84819L8.448 9.34419C9.328 9.34419 10.128 9.5442 10.848 9.94419C11.568 10.3282 12.136 10.8722 12.552 11.5762C12.984 12.2802 13.2 13.0962 13.2 14.0242C13.2 14.9682 12.976 15.7922 12.528 16.4962C12.096 17.2002 11.48 17.7442 10.68 18.1282C9.896 18.5122 8.968 18.7042 7.896 18.7042H2.448ZM0 18.7042V1.42419H3.12V18.7042H0Z" fill="black"/>
<path d="M37.0015 4.42C37.2991 3.54915 38.5024 3.52277 38.8552 4.34087L38.8851 4.42049L39.2866 5.5949C39.3787 5.86423 39.5274 6.1107 39.7228 6.31767C39.9182 6.52464 40.1557 6.6873 40.4192 6.79469L40.5272 6.83499L41.7016 7.23608C42.5725 7.53367 42.5989 8.73693 41.7813 9.08975L41.7016 9.11961L40.5272 9.5212C40.2578 9.61317 40.0112 9.76187 39.8042 9.95725C39.5971 10.1526 39.4344 10.3902 39.327 10.6538L39.2866 10.7613L38.8856 11.9362C38.588 12.807 37.3847 12.8334 37.0324 12.0158L37.0015 11.9362L36.6004 10.7618C36.5085 10.4924 36.3598 10.2458 36.1644 10.0387C35.969 9.83168 35.7315 9.66894 35.4678 9.56151L35.3603 9.5212L34.1859 9.12011C33.3146 8.82253 33.2882 7.61926 34.1063 7.26694L34.1859 7.23608L35.3603 6.83499C35.6297 6.74296 35.8761 6.59424 36.0831 6.39886C36.2901 6.20347 36.4527 5.96598 36.5601 5.70239L36.6004 5.5949L37.0015 4.42Z" fill="url(#paint1_linear_36_99)"/>
<path d="M37.0014 4.42037C37.299 3.5495 38.5021 3.52314 38.8549 4.34126L38.8852 4.42037L39.2866 5.5952C39.3786 5.86451 39.5277 6.11092 39.7231 6.31787C39.9184 6.52475 40.1559 6.68708 40.4194 6.79445L40.5278 6.83547L41.7017 7.23587C42.5725 7.53345 42.5993 8.73756 41.7817 9.0904L41.7017 9.1197L40.5278 9.52108L40.3296 9.60116C40.137 9.69092 39.9593 9.81117 39.8042 9.95761L39.6577 10.1119C39.5196 10.2734 39.4081 10.4563 39.3276 10.6539L39.2866 10.7613L38.8862 11.9362L38.8198 12.0895C38.4665 12.7594 37.5033 12.7829 37.1078 12.1598L37.0326 12.0163L37.0014 11.9362L36.601 10.7623C36.509 10.4929 36.3598 10.2457 36.1645 10.0387C35.9692 9.83177 35.7316 9.6695 35.4682 9.56209L35.3607 9.52108L34.1859 9.12068C33.3146 8.82308 33.2887 7.61944 34.1068 7.26712L34.1859 7.23587L35.3607 6.83547C35.5628 6.76641 35.752 6.66527 35.9213 6.53663L36.0834 6.39893C36.2903 6.20362 36.4526 5.96609 36.56 5.70263L36.601 5.5952L37.0014 4.42037ZM38.3959 4.53854C38.2207 4.13339 37.6222 4.15166 37.475 4.58151L37.0737 5.75634L37.0717 5.76317L37.0688 5.77099L37.0287 5.87841L37.0238 5.89111L36.56 5.70263L37.0229 5.89111C36.8885 6.22086 36.6851 6.51779 36.4262 6.76222C36.1672 7.00669 35.8589 7.19298 35.5219 7.30813L34.3539 7.70658L34.3002 7.72709C33.8991 7.9035 33.9182 8.50022 34.348 8.64703L35.5219 9.04841L35.5287 9.05036L35.5365 9.05329L35.6439 9.09333L35.6566 9.09821C35.9864 9.23261 36.2833 9.43689 36.5277 9.69589C36.7721 9.95489 36.9586 10.2632 37.0737 10.6002L37.4682 11.7555L37.4916 11.818C37.6659 12.2225 38.2652 12.2056 38.4125 11.775L38.8139 10.6002L38.8159 10.5934L38.8188 10.5856L38.8588 10.4781L38.8637 10.4654C38.9981 10.1356 39.2023 9.83781 39.4614 9.59334C39.7203 9.34908 40.0288 9.16345 40.3657 9.04841L41.5259 8.65191L41.5854 8.62848C41.9879 8.45222 41.9697 7.85647 41.5405 7.70951L40.3657 7.30813L40.353 7.30423V7.30325L40.2446 7.26321L40.2378 7.26028L40.2309 7.25833C39.9011 7.12397 39.6043 6.91962 39.3598 6.66066C39.1154 6.40169 38.9291 6.09333 38.8139 5.75634L38.4174 4.59615L38.3959 4.53854Z" fill="black"/>
<defs>
<linearGradient id="paint0_linear_36_99" x1="121.322" y1="1.52303" x2="121.322" y2="9.50507" gradientUnits="userSpaceOnUse">
<stop offset="0.269231" stop-color="#FEEE77"/>
<stop offset="1" stop-color="#FFEEB5"/>
</linearGradient>
<linearGradient id="paint1_linear_36_99" x1="37.9436" y1="3.74646" x2="37.9436" y2="12.6098" gradientUnits="userSpaceOnUse">
<stop stop-color="#FEEDB4"/>
<stop offset="0.726883" stop-color="#FEEE77"/>
</linearGradient>
</defs>
</svg>
