<svg width="43" height="43" viewBox="0 0 43 43" fill="none" xmlns="http://www.w3.org/2000/svg">
<g clip-path="url(#clip0_9_1015)">
<g filter="url(#filter0_d_9_1015)">
<path d="M21.5001 41.636C32.1423 41.636 40.7695 33.0088 40.7695 22.3667C40.7695 11.7245 32.1423 3.09729 21.5001 3.09729C10.8579 3.09729 2.23071 11.7245 2.23071 22.3667C2.23071 33.0088 10.8579 41.636 21.5001 41.636Z" fill="#D68F30"/>
</g>
<path d="M3.54077 27.3721V29.3407C3.74233 29.8614 3.96741 30.3754 4.21265 30.8726V27.3721H3.54077ZM5.7378 31.0775V33.4425C6.00655 33.8221 6.28538 34.195 6.57765 34.5545V31.0775H5.7378ZM8.64702 34.1681V36.7179C8.97288 37.0102 9.30882 37.289 9.65483 37.5578V34.1681H8.64702ZM12.2281 36.5164V39.2576C12.5573 39.439 12.8933 39.6103 13.2359 39.7749V36.5164H12.2281ZM16.2896 38.0113V40.9138C16.6222 41.0078 16.9581 41.0918 17.2974 41.1691V38.0113H16.2896ZM21.0431 38.5286V41.6226C21.1943 41.626 21.3455 41.6327 21.5 41.6327C21.6848 41.6327 21.8695 41.6226 22.0509 41.6192V38.5286H21.0431ZM25.7966 37.9878V41.1456C26.1359 41.0683 26.4719 40.981 26.8044 40.8869V37.9878H25.7966ZM29.848 36.4727V39.7346C30.1907 39.57 30.5266 39.392 30.8558 39.2072V36.4727H29.848ZM33.4191 34.1043V37.4973C33.7648 37.2269 34.1009 36.9446 34.4269 36.6507V34.1043H33.4191ZM37.3193 31.0036H36.4794V34.4806C36.7717 34.1178 37.0539 33.7449 37.3193 33.3619V31.0036ZM39.5029 27.2848H38.831V30.792C39.0762 30.2847 39.3013 29.764 39.5029 29.2366V27.2848Z" fill="#BC6F00"/>
<path d="M21.5001 39.9026C32.1423 39.9026 40.7695 31.2754 40.7695 20.6333C40.7695 9.99108 32.1423 1.36389 21.5001 1.36389C10.8579 1.36389 2.23071 9.99108 2.23071 20.6333C2.23071 31.2754 10.8579 39.9026 21.5001 39.9026Z" fill="#FFF176"/>
<path d="M21.5 38.186C31.1941 38.186 39.0527 30.3274 39.0527 20.6333C39.0527 10.9392 31.1941 3.08057 21.5 3.08057C11.8059 3.08057 3.94727 10.9392 3.94727 20.6333C3.94727 30.3274 11.8059 38.186 21.5 38.186Z" fill="#F2BC1A"/>
<path d="M3.91367 21.3052C3.78937 18.9939 4.18914 16.6491 4.99539 14.4521C5.83523 12.2618 7.12187 10.2361 8.74445 8.51606C12.003 5.06934 16.733 3.07051 21.5 3.047C26.2669 3.07387 31.0003 5.06934 34.2522 8.51942C35.8781 10.2361 37.1614 12.2651 38.0012 14.4521C38.8109 16.6525 39.2106 18.9939 39.083 21.3052H39.0158C39.0088 18.9996 38.5524 16.7174 37.672 14.5864C36.79 12.4579 35.5018 10.5215 33.8793 8.88559C32.2558 7.25141 30.3267 5.95244 28.2019 5.06262C26.0777 4.1756 23.7986 3.71887 21.4966 3.71887C19.1947 3.71887 16.9155 4.1756 14.7913 5.06262C12.6666 5.95244 10.7375 7.25141 9.11398 8.88559C7.4908 10.521 6.20246 12.4575 5.32125 14.5864C4.44091 16.7174 3.98448 18.9996 3.9775 21.3052H3.91367Z" fill="#E08F00"/>
<path d="M21.5001 1.36731C10.8576 1.36731 2.23071 9.99418 2.23071 20.6367C2.23071 31.2792 10.8576 39.9061 21.5001 39.9061C32.1426 39.9061 40.7695 31.2792 40.7695 20.6367C40.7695 9.99418 32.1426 1.36731 21.5001 1.36731ZM21.5001 38.1894C11.8049 38.1894 3.94735 30.3318 3.94735 20.6367C3.94735 10.9382 11.8049 3.08059 21.5001 3.08059C31.1952 3.08059 39.0528 10.9382 39.0528 20.6333C39.0528 30.3285 31.1952 38.1894 21.5001 38.1894Z" fill="#FFF176"/>
<path d="M12.7623 7.17224L13.1889 8.49248L14.5797 7.96169V8.49248L13.4543 9.3088L13.8843 10.0949V10.629L12.7623 9.81271L11.6369 10.629V10.0949L12.0669 9.3088L10.9449 8.49248V7.96169L12.3323 8.49248L12.7623 7.17224ZM7.39401 14.751L7.82401 16.0712L9.21144 15.5404V16.0712L8.0894 16.8876L8.5194 17.677V18.2078L7.39401 17.3915L6.27198 18.2078V17.677L6.70198 16.8876L5.57659 16.0712V15.5404L6.96737 16.0712L7.39401 14.751ZM7.23612 24.0934L7.66612 25.4137L9.05355 24.8829V25.4137L7.93151 26.23L8.36151 27.0194V27.5502L7.23612 26.7339L6.11409 27.5502V27.0194L6.54409 26.23L5.4187 25.4137V24.8829L6.80948 25.4137L7.23612 24.0934ZM12.9672 31.5109L13.3972 32.8312L14.7846 32.3004V32.8312L13.6626 33.6475L14.0926 34.4336V34.9677L12.9672 34.1514L11.8452 34.9677V34.4336L12.2752 33.6475L11.1498 32.8312V32.3004L12.5406 32.8312L12.9672 31.5109ZM30.2378 7.17224L29.8111 8.49248L28.4203 7.96169V8.49248L29.5457 9.3088L29.1157 10.0949V10.629L30.2378 9.81271L31.3632 10.629V10.0949L30.9332 9.3088L32.0552 8.49248V7.96169L30.6678 8.49248L30.2378 7.17224ZM35.606 14.751L35.176 16.0712L33.7886 15.5404V16.0712L34.9107 16.8876L34.4807 17.677V18.2078L35.606 17.3915L36.7281 18.2078V17.677L36.2981 16.8876L37.4235 16.0712V15.5404L36.0327 16.0712L35.606 14.751ZM35.7639 24.0934L35.3339 25.4137L33.9465 24.8829V25.4137L35.0685 26.23L34.6385 27.0194V27.5502L35.7639 26.7339L36.886 27.5502V27.0194L36.456 26.23L37.5814 25.4137V24.8829L36.1906 25.4137L35.7639 24.0934ZM30.0328 31.5109L29.6028 32.8312L28.2154 32.3004V32.8312L29.3375 33.6475L28.9075 34.4336V34.9677L30.0328 34.1514L31.1549 34.9677V34.4336L30.7249 33.6475L31.8503 32.8312V32.3004L30.4595 32.8312L30.0328 31.5109Z" fill="#D38200"/>
<path d="M30.0328 30.9769L30.4594 32.2971H31.8502L30.7248 33.1134L31.1548 34.4337L30.0328 33.6173L28.9074 34.4337L29.3374 33.1134L28.2153 32.2971H29.6028L30.0328 30.9769ZM35.7638 23.5627L36.1905 24.8829H37.5813L36.4559 25.6993L36.8859 27.0195L35.7638 26.2032L34.6385 27.0195L35.0685 25.6993L33.9464 24.8829H35.3338L35.7638 23.5627ZM35.606 14.2203L36.0326 15.5405H37.4234L36.298 16.3569L36.728 17.6771L35.606 16.8608L34.4806 17.6771L34.9106 16.3569L33.7885 15.5405H35.176L35.606 14.2203ZM30.2377 6.63818L30.6677 7.95842H32.0551L30.9331 8.77475L31.3631 10.095L30.2377 9.27865L29.1156 10.095L29.5456 8.77475L28.4203 7.95842H29.811L30.2377 6.63818Z" fill="#FFF176"/>
<path d="M21.5169 34.4336L21.9469 35.7538L23.3343 35.223V35.7538L22.2123 36.5702L22.6423 37.3596V37.8904L21.5169 37.0741L20.3949 37.8904V37.3596L20.8249 36.5702L19.6995 35.7538V35.223L21.0902 35.7538L21.5169 34.4336Z" fill="#D38200"/>
<path d="M21.5169 33.7281L21.9469 35.0484H23.3343L22.2123 35.8647L22.6423 37.1849L21.5169 36.3686L20.3949 37.1849L20.8249 35.8647L19.6995 35.0484H21.0902L21.5169 33.7281Z" fill="#FFF176"/>
<path d="M21.5169 4.3302L21.9469 5.65043L23.3343 5.11965V5.65043L22.2123 6.46676L22.6423 7.25622V7.787L21.5169 6.97067L20.3949 7.787V7.25622L20.8249 6.46676L19.6995 5.65043V5.11965L21.0902 5.65043L21.5169 4.3302Z" fill="#D38200"/>
<path d="M21.5168 3.79944L21.9468 5.11967H23.3342L22.2122 5.936L22.6422 7.25624L21.5168 6.43991L20.3948 7.25624L20.8248 5.936L19.6994 5.11967H21.0902L21.5168 3.79944ZM12.9672 30.9768L12.5406 32.297H11.1498L12.2752 33.1133L11.8452 34.4336L12.9672 33.6173L14.0926 34.4336L13.6626 33.1133L14.7846 32.297H13.3972L12.9672 30.9768ZM7.23612 23.5626L6.80948 24.8829H5.4187L6.54409 25.6992L6.11409 27.0194L7.23612 26.2031L8.36151 27.0194L7.93151 25.6992L9.05355 24.8829H7.66612L7.23612 23.5626ZM7.39401 14.2202L6.96737 15.5405H5.57659L6.70198 16.3568L6.27198 17.677L7.39401 16.8607L8.51941 17.677L8.0894 16.3568L9.21144 15.5405H7.82401L7.39401 14.2202ZM12.7623 6.63811L12.3323 7.95834H10.9449L12.0669 8.77467L11.6369 10.0949L12.7623 9.27858L13.8843 10.0949L13.4543 8.77467L14.5797 7.95834H13.1889L12.7623 6.63811Z" fill="#FFF176"/>
<path d="M31.9879 16.1921C31.9879 16.0746 11.0321 16.1921 11.0321 16.1921L10.844 16.7565V17.7207C10.844 17.8954 10.985 18.0364 11.1597 18.0364H31.84C32.0147 18.0364 32.1558 17.8954 32.1558 17.7207V16.7834L31.9879 16.1921ZM32.0181 28.7226H11.1194L9.72192 29.4247L9.73872 30.3284C9.74208 30.4258 9.82271 30.5064 9.92349 30.5064H33.0797C33.1771 30.5064 33.2611 30.4292 33.2644 30.3284L33.2812 29.4415L32.0181 28.7226Z" fill="#D38200"/>
<path d="M14.4889 25.9747H13.2862C13.088 25.9747 12.9268 25.3498 12.9268 25.1516L14.845 25.0911C14.845 25.2894 14.6837 25.9747 14.4889 25.9747ZM14.8987 19.4877H12.873C12.7219 19.4877 12.5908 19.3869 12.5472 19.2425L12.3893 17.9222H15.3556L15.2212 19.2425C15.1809 19.3869 15.0499 19.4877 14.8987 19.4877ZM12.873 26.3744H14.8987C15.0499 26.3744 15.3489 26.4685 15.3892 26.6129C15.3892 26.6129 15.3791 27.2411 15.3791 27.4897C15.3791 27.7383 15.2783 27.9197 15.0533 27.9197H12.7185C12.4934 27.9197 12.3926 27.7182 12.3926 27.4897C12.3926 27.2613 12.3826 26.6197 12.3826 26.6197C12.4262 26.4752 12.7219 26.3744 12.873 26.3744ZM30.11 25.9747H28.9073C28.7091 25.9747 28.5479 25.3498 28.5479 25.1516L30.4661 25.0911C30.4661 25.2894 30.3082 25.9747 30.11 25.9747ZM30.5198 19.4877H28.4941C28.343 19.4877 28.2119 19.3869 28.1683 19.2425L28.0104 17.9222H30.9767L30.8423 19.2425C30.802 19.3869 30.671 19.4877 30.5198 19.4877ZM28.4941 26.3744H30.5198C30.671 26.3744 30.97 26.4685 31.0103 26.6129C31.0103 26.6129 31.0002 27.2411 31.0002 27.4897C31.0002 27.7383 30.8994 27.9197 30.6744 27.9197H28.3396C28.1145 27.9197 28.0137 27.7182 28.0137 27.4897C28.0137 27.2613 28.0037 26.6197 28.0037 26.6197C28.0473 26.4752 28.343 26.3744 28.4941 26.3744ZM24.903 25.9747H23.7003C23.5021 25.9747 23.3409 25.3498 23.3409 25.1516L25.2591 25.0911C25.2591 25.2894 25.1012 25.9747 24.903 25.9747ZM25.3128 19.4877H23.2871C23.1359 19.4877 23.0049 19.3869 22.9612 19.2425L22.8033 17.9222H25.7697L25.6353 19.2425C25.595 19.3869 25.464 19.4877 25.3128 19.4877ZM23.2871 26.3744H25.3128C25.464 26.3744 25.763 26.4685 25.8033 26.6129C25.8033 26.6129 25.7932 27.2411 25.7932 27.4897C25.7932 27.7383 25.6924 27.9197 25.4673 27.9197H23.1326C22.9075 27.9197 22.8067 27.7182 22.8067 27.4897C22.8067 27.2613 22.7966 26.6197 22.7966 26.6197C22.8403 26.4752 23.1359 26.3744 23.2871 26.3744ZM19.6959 25.9747H18.4933C18.2951 25.9747 18.1338 25.3498 18.1338 25.1516L20.052 25.0911C20.052 25.2894 19.8941 25.9747 19.6959 25.9747ZM20.1058 19.4877H18.0801C17.9289 19.4877 17.7979 19.3869 17.7542 19.2425L17.5963 17.9222H20.5626L20.4283 19.2425C20.388 19.3869 20.2569 19.4877 20.1058 19.4877ZM18.0801 26.3744H20.1058C20.2569 26.3744 20.5559 26.4685 20.5962 26.6129C20.5962 26.6129 20.5862 27.2411 20.5862 27.4897C20.5862 27.7383 20.4854 27.9197 20.2603 27.9197H17.9255C17.7005 27.9197 17.5997 27.7182 17.5997 27.4897C17.5997 27.2613 17.5896 26.6197 17.5896 26.6197C17.6333 26.4752 17.9289 26.3744 18.0801 26.3744Z" fill="#D38200"/>
<path d="M32.1391 15.2919C32.1391 15.1743 32.0786 15.0634 31.9879 15.0097L21.5134 9.0636L11.0254 15.003C10.9246 15.0634 10.8608 15.1743 10.8608 15.2919L10.844 16.7599C10.844 16.9447 10.9952 17.0959 11.1799 17.0959H31.8166C32.0013 17.0959 32.1525 16.9447 32.1525 16.7599L32.1391 15.2919Z" fill="#FFF176"/>
<path d="M29.5087 14.8922L21.5 10.3469L13.4912 14.8922H29.5087Z" fill="#F2BC1A"/>
<path d="M26.5627 14.3378L21.5001 11.4622L16.4375 14.3378H26.5627ZM31.3733 27.5536H11.6269C11.4321 27.5536 11.2473 27.6376 11.1163 27.782L9.7591 29.2971C9.66503 29.4012 9.73894 29.5658 9.88003 29.5658H33.1202C33.2579 29.5658 33.3318 29.4012 33.2411 29.2971L31.8806 27.782C31.7529 27.6376 31.5648 27.5536 31.3733 27.5536ZM30.1102 25.3666H28.9075C28.7093 25.3666 28.5481 25.2054 28.5481 25.0072V19.6389C28.5481 19.4407 28.7093 19.2794 28.9075 19.2794H30.1102C30.3084 19.2794 30.4696 19.4407 30.4696 19.6389V25.0105C30.4696 25.2087 30.3084 25.3666 30.1102 25.3666ZM30.5234 18.8797H28.4977C28.3465 18.8797 28.2155 18.7789 28.1718 18.6344L28.0173 18.1003C27.9535 17.8853 28.1181 17.6703 28.3432 17.6703H30.6779C30.903 17.6703 31.0643 17.8853 31.0038 18.1003L30.8493 18.6344C30.8056 18.7789 30.6712 18.8797 30.5234 18.8797ZM28.4943 25.7697H30.52C30.6712 25.7697 30.8022 25.8705 30.8459 26.015L31.0004 26.5491C31.0643 26.7641 30.8996 26.9791 30.6746 26.9791H28.3398C28.1147 26.9791 27.9535 26.7641 28.0139 26.5491L28.1685 26.015C28.2121 25.8672 28.3465 25.7697 28.4943 25.7697ZM14.4891 25.3666H13.2864C13.0882 25.3666 12.927 25.2054 12.927 25.0072V19.6389C12.927 19.4407 13.0882 19.2794 13.2864 19.2794H14.4891C14.6873 19.2794 14.8486 19.4407 14.8486 19.6389V25.0105C14.8452 25.2087 14.6839 25.3666 14.4891 25.3666ZM14.8989 18.8797H12.8732C12.7221 18.8797 12.5911 18.7789 12.5474 18.6344L12.3928 18.1003C12.329 17.8853 12.4936 17.6703 12.7187 17.6703H15.0535C15.2786 17.6703 15.4398 17.8853 15.3793 18.1003L15.2248 18.6344C15.1811 18.7789 15.0501 18.8797 14.8989 18.8797ZM12.8732 25.7697H14.8989C15.0501 25.7697 15.1811 25.8705 15.2248 26.015L15.3793 26.5491C15.4432 26.7641 15.2786 26.9791 15.0535 26.9791H12.7187C12.4936 26.9791 12.3324 26.7641 12.3928 26.5491L12.5474 26.015C12.5911 25.8672 12.7221 25.7697 12.8732 25.7697ZM19.6961 25.3666H18.4935C18.2953 25.3666 18.134 25.2054 18.134 25.0072V19.6389C18.134 19.4407 18.2953 19.2794 18.4935 19.2794H19.6961C19.8943 19.2794 20.0556 19.4407 20.0556 19.6389V25.0105C20.0547 25.1053 20.0164 25.1958 19.9491 25.2625C19.8818 25.3292 19.7909 25.3666 19.6961 25.3666ZM20.106 18.8797H18.0803C17.9291 18.8797 17.7981 18.7789 17.7544 18.6344L17.5999 18.1003C17.5361 17.8853 17.7007 17.6703 17.9257 17.6703H20.2605C20.4856 17.6703 20.6468 17.8853 20.5864 18.1003L20.4318 18.6344C20.3882 18.7789 20.2571 18.8797 20.106 18.8797ZM18.0803 25.7697H20.106C20.2571 25.7697 20.3882 25.8705 20.4318 26.015L20.5864 26.5491C20.6502 26.7641 20.4856 26.9791 20.2605 26.9791H17.9257C17.7007 26.9791 17.5394 26.7641 17.5999 26.5491L17.7544 26.015C17.7981 25.8672 17.9291 25.7697 18.0803 25.7697ZM24.9032 25.3666H23.7005C23.5023 25.3666 23.3411 25.2054 23.3411 25.0072V19.6389C23.3411 19.4407 23.5023 19.2794 23.7005 19.2794H24.9032C25.1014 19.2794 25.2626 19.4407 25.2626 19.6389V25.0105C25.2617 25.1053 25.2235 25.1958 25.1562 25.2625C25.0888 25.3292 24.9979 25.3666 24.9032 25.3666ZM25.313 18.8797H23.2873C23.1361 18.8797 23.0051 18.7789 22.9614 18.6344L22.8069 18.1003C22.7431 17.8853 22.9077 17.6703 23.1328 17.6703H25.4675C25.6926 17.6703 25.8539 17.8853 25.7934 18.1003L25.6389 18.6344C25.5952 18.7789 25.4642 18.8797 25.313 18.8797ZM23.2873 25.7697H25.313C25.4642 25.7697 25.5952 25.8705 25.6389 26.015L25.7934 26.5491C25.8572 26.7641 25.6926 26.9791 25.4675 26.9791H23.1328C22.9077 26.9791 22.7464 26.7641 22.8069 26.5491L22.9614 26.015C23.0051 25.8672 23.1395 25.7697 23.2873 25.7697Z" fill="#FFF176"/>
<g filter="url(#filter1_d_9_1015)">
<path d="M34.4286 28.8571C34.4286 28.6298 34.3307 28.4118 34.1566 28.2511C33.9825 28.0903 33.7463 28 33.5 28C33.2537 28 33.0175 28.0903 32.8434 28.2511C32.6693 28.4118 32.5714 28.6298 32.5714 28.8571V33.1429H27.9286C27.6823 33.1429 27.4461 33.2332 27.272 33.3939C27.0978 33.5547 27 33.7727 27 34C27 34.2273 27.0978 34.4453 27.272 34.6061C27.4461 34.7668 27.6823 34.8571 27.9286 34.8571H32.5714V39.1429C32.5714 39.3702 32.6693 39.5882 32.8434 39.7489C33.0175 39.9097 33.2537 40 33.5 40C33.7463 40 33.9825 39.9097 34.1566 39.7489C34.3307 39.5882 34.4286 39.3702 34.4286 39.1429V34.8571H39.0714C39.3177 34.8571 39.5539 34.7668 39.728 34.6061C39.9022 34.4453 40 34.2273 40 34C40 33.7727 39.9022 33.5547 39.728 33.3939C39.5539 33.2332 39.3177 33.1429 39.0714 33.1429H34.4286V28.8571Z" fill="url(#paint0_linear_9_1015)"/>
<path d="M33.5 27C33.9259 27 34.348 27.1357 34.6924 27.3965L34.835 27.5166L34.9668 27.6504C35.2571 27.9778 35.4287 28.4029 35.4287 28.8574V32.1426H39.0713C39.4973 32.1426 39.9192 32.2792 40.2637 32.54L40.4062 32.6592L40.5381 32.793C40.8285 33.1205 41 33.5454 41 34C41 34.5195 40.7756 34.9999 40.4062 35.3408C40.0396 35.6793 39.5581 35.8574 39.0713 35.8574H35.4287V39.1426C35.4287 39.662 35.2042 40.1424 34.835 40.4834C34.4683 40.8219 33.9868 41 33.5 41C33.0132 41 32.5317 40.8219 32.165 40.4834C31.7958 40.1424 31.5713 39.662 31.5713 39.1426V35.8574H27.9287C27.4419 35.8574 26.9604 35.6793 26.5938 35.3408C26.2244 34.9999 26 34.5195 26 34C26 33.4805 26.2244 33.0001 26.5938 32.6592L26.7363 32.54C27.0808 32.2792 27.5027 32.1426 27.9287 32.1426H31.5713V28.8574C31.5713 28.338 31.7958 27.8576 32.165 27.5166C32.5317 27.1781 33.0132 27 33.5 27Z" stroke="white" stroke-width="2"/>
</g>
</g>
<defs>
<filter id="filter0_d_9_1015" x="0.230713" y="1.09729" width="42.5388" height="42.5387" filterUnits="userSpaceOnUse" color-interpolation-filters="sRGB">
<feFlood flood-opacity="0" result="BackgroundImageFix"/>
<feColorMatrix in="SourceAlpha" type="matrix" values="0 0 0 0 0 0 0 0 0 0 0 0 0 0 0 0 0 0 127 0" result="hardAlpha"/>
<feOffset/>
<feGaussianBlur stdDeviation="1"/>
<feComposite in2="hardAlpha" operator="out"/>
<feColorMatrix type="matrix" values="0 0 0 0 0 0 0 0 0 0 0 0 0 0 0 0 0 0 0.25 0"/>
<feBlend mode="normal" in2="BackgroundImageFix" result="effect1_dropShadow_9_1015"/>
<feBlend mode="normal" in="SourceGraphic" in2="effect1_dropShadow_9_1015" result="shape"/>
</filter>
<filter id="filter1_d_9_1015" x="25" y="26" width="17" height="16.5" filterUnits="userSpaceOnUse" color-interpolation-filters="sRGB">
<feFlood flood-opacity="0" result="BackgroundImageFix"/>
<feColorMatrix in="SourceAlpha" type="matrix" values="0 0 0 0 0 0 0 0 0 0 0 0 0 0 0 0 0 0 127 0" result="hardAlpha"/>
<feOffset dy="0.5"/>
<feComposite in2="hardAlpha" operator="out"/>
<feColorMatrix type="matrix" values="0 0 0 0 0.737255 0 0 0 0 0.435294 0 0 0 0 0 0 0 0 1 0"/>
<feBlend mode="normal" in2="BackgroundImageFix" result="effect1_dropShadow_9_1015"/>
<feBlend mode="normal" in="SourceGraphic" in2="effect1_dropShadow_9_1015" result="shape"/>
</filter>
<linearGradient id="paint0_linear_9_1015" x1="27.4643" y1="28.4286" x2="37.6521" y2="40.3852" gradientUnits="userSpaceOnUse">
<stop stop-color="#FFE600"/>
<stop offset="1" stop-color="#EAA676"/>
</linearGradient>
<clipPath id="clip0_9_1015">
<rect width="43" height="43" fill="white"/>
</clipPath>
</defs>
</svg>
