<svg width="58" height="12" viewBox="0 0 58 12" fill="none" xmlns="http://www.w3.org/2000/svg">
<g clip-path="url(#clip0_9_1095)">
<path fill-rule="evenodd" clip-rule="evenodd" d="M13.8245 4.53351C13.733 4.86736 13.5558 5.11238 13.2926 5.26883C13.0292 5.42525 12.6598 5.50362 12.1832 5.50362H10.6692L11.2007 3.56355H12.7147C13.1909 3.56355 13.5178 3.64177 13.6954 3.79819C13.8727 3.95479 13.916 4.19984 13.8245 4.53351ZM15.3924 4.4917C15.5849 3.78969 15.5051 3.25071 15.153 2.87524C14.8009 2.49976 14.184 2.31213 13.3029 2.31213H9.92326L7.88916 9.73777H9.53112L10.3512 6.7445H11.428C11.6695 6.7445 11.8595 6.78281 11.9985 6.8593C12.1378 6.93593 12.2194 7.07155 12.2446 7.26598L12.5374 9.73777H14.2968L14.0113 7.43299C13.9532 6.91843 13.7125 6.61597 13.2895 6.52563C13.8287 6.37283 14.2804 6.11877 14.6442 5.76412C15.0077 5.40966 15.2573 4.98562 15.3924 4.4917Z" fill="#072654"/>
<path fill-rule="evenodd" clip-rule="evenodd" d="M19.3831 7.07831C19.2459 7.57881 19.0346 7.96138 18.7491 8.2255C18.4634 8.4898 18.1216 8.62179 17.7238 8.62179C17.3181 8.62179 17.043 8.49153 16.898 8.2307C16.7522 7.97005 16.7473 7.59303 16.8827 7.09911C17.0178 6.60556 17.2334 6.2197 17.5302 5.94134C17.8266 5.66351 18.1737 5.52427 18.5718 5.52427C18.9697 5.52427 19.2391 5.65833 19.3788 5.92592C19.5186 6.19352 19.5203 6.57764 19.3831 7.07831ZM20.1028 4.45007L19.8972 5.20102C19.8082 4.92977 19.6362 4.71437 19.3817 4.55448C19.1268 4.39459 18.8108 4.31445 18.4343 4.31445C17.9723 4.31445 17.528 4.43101 17.1019 4.66392C16.6757 4.89698 16.303 5.22547 15.9843 5.64948C15.6655 6.07367 15.4319 6.55684 15.2833 7.09911C15.1348 7.6416 15.105 8.11956 15.1943 8.53316C15.2837 8.94696 15.4773 9.26501 15.7754 9.4875C16.0733 9.71017 16.4569 9.82117 16.926 9.82117C17.3025 9.82117 17.6614 9.74471 18.0018 9.59173C18.3421 9.43896 18.6311 9.2267 18.869 8.95561L18.6545 9.73777H20.2429L21.6913 4.45007H20.1028Z" fill="#072654"/>
<path fill-rule="evenodd" clip-rule="evenodd" d="M27.4028 4.45007H22.7865L22.4638 5.62868H25.1503L21.5983 8.63218L21.2952 9.73776H26.0608L26.3838 8.55934H23.5055L27.1114 5.51385L27.4028 4.45007Z" fill="#072654"/>
<path fill-rule="evenodd" clip-rule="evenodd" d="M31.4671 7.0679C31.3242 7.5892 31.1125 7.97888 30.8325 8.23609C30.5524 8.49327 30.2134 8.62176 29.8156 8.62176C28.9838 8.62176 28.71 8.10409 28.9937 7.0679C29.1348 6.55334 29.3476 6.16574 29.6319 5.9051C29.9166 5.64427 30.2613 5.51385 30.6665 5.51385C31.0643 5.51385 31.3327 5.64427 31.471 5.9051C31.6093 6.16574 31.6082 6.55334 31.4671 7.0679ZM32.3964 4.64812C32.0309 4.42577 31.5639 4.31445 30.9952 4.31445C30.4194 4.31445 29.8861 4.42577 29.3951 4.64812C28.904 4.87079 28.486 5.1906 28.141 5.60767C27.7956 6.02492 27.5467 6.51156 27.3943 7.0679C27.2418 7.62424 27.2241 8.1107 27.3411 8.52795C27.4578 8.9452 27.7003 9.26501 28.0697 9.4875C28.4388 9.71017 28.9111 9.82117 29.4869 9.82117C30.0556 9.82117 30.5835 9.71017 31.0711 9.4875C31.5579 9.26501 31.9745 8.9452 32.3198 8.52795C32.6648 8.1107 32.9137 7.62424 33.0662 7.0679C33.2187 6.51156 33.2364 6.02492 33.1197 5.60767C33.0027 5.1906 32.7616 4.87079 32.3964 4.64812Z" fill="#072654"/>
<path fill-rule="evenodd" clip-rule="evenodd" d="M49.0104 7.07831C48.8732 7.57881 48.6619 7.96138 48.3764 8.2255C48.091 8.4898 47.7485 8.62179 47.3507 8.62179C46.9458 8.62179 46.6703 8.49153 46.5253 8.2307C46.3795 7.97005 46.3746 7.59303 46.51 7.09911C46.6451 6.60556 46.8607 6.2197 47.1575 5.94134C47.4539 5.66351 47.801 5.52427 48.1991 5.52427C48.597 5.52427 48.8664 5.65833 49.0061 5.92592C49.1459 6.19352 49.1476 6.57764 49.0104 7.07831ZM49.7301 4.45007L49.5245 5.20102C49.4355 4.92977 49.2635 4.71437 49.009 4.55448C48.7541 4.39459 48.4381 4.31445 48.0616 4.31445C47.5996 4.31445 47.1553 4.43101 46.7292 4.66392C46.303 4.89698 45.9303 5.22547 45.6116 5.64948C45.2928 6.07367 45.0592 6.55684 44.9106 7.09911C44.7621 7.6416 44.7326 8.11956 44.8216 8.53316C44.9109 8.94696 45.1042 9.26501 45.4027 9.4875C45.7006 9.71017 46.0842 9.82117 46.5533 9.82117C46.9298 9.82117 47.2887 9.74471 47.629 9.59173C47.9694 9.43896 48.2584 9.2267 48.4963 8.95561L48.2818 9.73777H49.8702L51.3186 4.45007H49.7301Z" fill="#072654"/>
<path fill-rule="evenodd" clip-rule="evenodd" d="M38.0598 5.86846L38.4647 4.42921C38.3271 4.35966 38.1449 4.32483 37.9176 4.32483C37.5549 4.32483 37.2057 4.41344 36.8692 4.59083C36.5802 4.74303 36.3342 4.95667 36.1264 5.22435L36.337 4.44929L35.8771 4.45004H34.7491L33.2896 9.7377H34.8999L35.6569 6.97405C35.7672 6.57083 35.965 6.25623 36.2512 6.03027C36.5366 5.8043 36.8929 5.69121 37.3195 5.69121C37.5825 5.69121 37.829 5.75035 38.0598 5.86846Z" fill="#072654"/>
<path fill-rule="evenodd" clip-rule="evenodd" d="M42.5423 7.09905C42.4068 7.59297 42.1969 7.97 41.9126 8.23065C41.6275 8.49147 41.2864 8.62171 40.8886 8.62171C40.4904 8.62171 40.2192 8.48974 40.0749 8.22544C39.9302 7.96132 39.9267 7.5789 40.0639 7.07823C40.2011 6.57758 40.4145 6.19343 40.7046 5.92584C40.9946 5.65825 41.3389 5.52418 41.7371 5.52418C42.1278 5.52418 42.3933 5.66345 42.5341 5.94146C42.6745 6.21961 42.6774 6.60565 42.5423 7.09905ZM43.6676 4.66383C43.3688 4.43092 42.9883 4.31458 42.5267 4.31458C42.1214 4.31458 41.7356 4.40492 41.3704 4.58564C41.0042 4.76668 40.7074 5.01312 40.4798 5.32614L40.4849 5.29145L40.7555 4.44927H40.4441V4.45002H39.1835L38.7832 5.91222C38.7786 5.92922 38.7747 5.94508 38.7701 5.96226L37.1189 11.9905H38.729L39.5604 8.95573C39.6419 9.22661 39.8114 9.43887 40.0681 9.59167C40.3248 9.74462 40.6414 9.82111 41.0184 9.82111C41.4875 9.82111 41.9335 9.71012 42.3572 9.48744C42.7805 9.2651 43.1485 8.94687 43.4606 8.5331C43.7729 8.11965 44.0034 7.64151 44.152 7.09905C44.3006 6.55675 44.3314 6.07361 44.2452 5.64942C44.1591 5.22538 43.9662 4.89692 43.6676 4.66383Z" fill="#072654"/>
<path fill-rule="evenodd" clip-rule="evenodd" d="M57.9857 4.45154L57.9868 4.45007H57.0115C56.9804 4.45007 56.9529 4.45094 56.9244 4.45154H56.4182L56.1594 4.8043C56.1386 4.83087 56.1179 4.85762 56.0956 4.88866L56.0674 4.9295L54.0104 7.73194L53.5839 4.45007H51.899L52.7522 9.43705L50.8679 11.9905H50.9216H51.8837H52.5466L53.0032 11.3577C53.0167 11.3389 53.0282 11.3234 53.0426 11.3035L53.5755 10.5644L53.5908 10.5433L55.9752 7.23674L57.9841 4.45372L57.9868 4.45154H57.9857Z" fill="#072654"/>
<path fill-rule="evenodd" clip-rule="evenodd" d="M3.75152 3.16277L3.26953 4.89793L6.02747 3.15302L4.22387 9.73608L6.05543 9.73773L8.71982 0.0144043L3.75152 3.16277Z" fill="#3395FF"/>
<path fill-rule="evenodd" clip-rule="evenodd" d="M0.78291 6.97028L0.0246582 9.7377H3.77893C3.77893 9.7377 5.31453 4.10928 5.31496 4.10767C5.31352 4.10856 0.78291 6.97028 0.78291 6.97028Z" fill="#072654"/>
</g>
<defs>
<clipPath id="clip0_9_1095">
<rect width="58" height="12" fill="white"/>
</clipPath>
</defs>
</svg>
